<svg width="24" height="24" viewBox="0 0 24 24" fill="none" xmlns="http://www.w3.org/2000/svg">
<g id="add_circle">
<mask id="mask0_185_4037" style="mask-type:alpha" maskUnits="userSpaceOnUse" x="0" y="0" width="24" height="24">
<rect id="Bounding box" width="24" height="24" fill="#D9D9D9"/>
</mask>
<g mask="url(#mask0_185_4037)">
<path id="add_circle_2" d="M11.2 16.9H12.85V12.85H16.9V11.2H12.85V7.09995H11.2V11.2H7.09995V12.85H11.2V16.9ZM12.0033 21.8C10.6481 21.8 9.374 21.5428 8.18105 21.0285C6.9881 20.5141 5.95039 19.8161 5.06793 18.9344C4.18548 18.0527 3.48687 17.0159 2.9721 15.824C2.45733 14.6321 2.19995 13.3585 2.19995 12.0033C2.19995 10.6438 2.4576 9.36573 2.9729 8.16903C3.48822 6.97231 4.18757 5.93133 5.07095 5.0461C5.95433 4.16087 6.99114 3.4652 8.18135 2.9591C9.37158 2.453 10.6433 2.19995 11.9966 2.19995C13.3559 2.19995 14.6339 2.45278 15.8304 2.95843C17.027 3.46409 18.068 4.15928 18.9535 5.04398C19.8389 5.92868 20.5347 6.96902 21.0408 8.165C21.5469 9.36098 21.8 10.6389 21.8 11.9987C21.8 13.3585 21.5471 14.6321 21.0415 15.8194C20.5358 17.0066 19.8407 18.0424 18.9563 18.9265C18.0718 19.8106 17.0317 20.5106 15.836 21.0263C14.6403 21.5421 13.3628 21.8 12.0033 21.8ZM12 20.15C14.2752 20.15 16.2023 19.3604 17.7814 17.7814C19.3604 16.2023 20.15 14.2752 20.15 12C20.15 9.72473 19.3604 7.7976 17.7814 6.21855C16.2023 4.63948 14.2752 3.84995 12 3.84995C9.72473 3.84995 7.7976 4.63948 6.21855 6.21855C4.63948 7.7976 3.84995 9.72473 3.84995 12C3.84995 14.2752 4.63948 16.2023 6.21855 17.7814C7.7976 19.3604 9.72473 20.15 12 20.15Z" fill="white"/>
</g>
</g>
</svg>
