<svg width="24" height="24" viewBox="0 0 24 24" fill="none" xmlns="http://www.w3.org/2000/svg">
<mask id="mask0_331_1165" style="mask-type:alpha" maskUnits="userSpaceOnUse" x="0" y="0" width="24" height="24">
<rect width="24" height="24" fill="#C8C9CC"/>
</mask>
<g mask="url(#mask0_331_1165)">
<path d="M9.15375 11.5001V10.3078H14.8462V11.5001H9.15375ZM10.1537 14.1923V13.0001H13.8462V14.1923H10.1537ZM9.3655 21.0961L8.24625 17.2578C7.42692 16.695 6.76442 15.9514 6.25875 15.0271C5.75292 14.1027 5.5 13.0937 5.5 12.0001C5.5 10.9064 5.75292 9.89739 6.25875 8.97305C6.76442 8.04872 7.42692 7.30514 8.24625 6.7423L9.3655 2.90405H14.6345L15.7538 6.7423C16.5731 7.30514 17.2356 8.04872 17.7413 8.97305C18.2471 9.89739 18.5 10.9064 18.5 12.0001C18.5 13.0937 18.2471 14.1027 17.7413 15.0271C17.2356 15.9514 16.5731 16.695 15.7538 17.2578L14.6345 21.0961H9.3655ZM12 17.0001C13.3833 17.0001 14.5625 16.5126 15.5375 15.5376C16.5125 14.5626 17 13.3834 17 12.0001C17 10.6167 16.5125 9.43755 15.5375 8.46255C14.5625 7.48755 13.3833 7.00005 12 7.00005C10.6167 7.00005 9.4375 7.48755 8.4625 8.46255C7.4875 9.43755 7 10.6167 7 12.0001C7 13.3834 7.4875 14.5626 8.4625 15.5376C9.4375 16.5126 10.6167 17.0001 12 17.0001Z" fill="#C8C9CC"/>
</g>
</svg>
