<svg width="25" height="24" viewBox="0 0 25 24" fill="none" xmlns="http://www.w3.org/2000/svg">
<g id="event_busy">
<mask id="mask0_185_5305" style="mask-type:alpha" maskUnits="userSpaceOnUse" x="0" y="0" width="25" height="24">
<rect id="Bounding box" width="25" height="24" fill="#D9D9D9"/>
</mask>
<g mask="url(#mask0_185_5305)">
<path id="event_busy_2" d="M10.3385 18.3077L9.26274 17.2749L11.4242 15.1999L9.26274 13.1249L10.3385 12.0922L12.5 14.1672L14.6614 12.0922L15.7372 13.1249L13.5758 15.1999L15.7372 17.2749L14.6614 18.3077L12.5 16.2327L10.3385 18.3077ZM6.10988 21.3499C5.50137 21.3499 4.99069 21.1488 4.57784 20.7464C4.16482 20.3443 3.95831 19.8569 3.95831 19.2844V7.01544C3.95831 6.44294 4.16482 5.95561 4.57784 5.55344C4.99069 5.15111 5.50137 4.94994 6.10988 4.94994H7.95258V2.41919H9.54321V4.94994H15.537V2.41919H17.0474V4.94994H18.8901C19.4986 4.94994 20.0093 5.15111 20.4221 5.55344C20.8351 5.95561 21.0416 6.44294 21.0416 7.01544V19.2844C21.0416 19.8569 20.8351 20.3443 20.4221 20.7464C20.0093 21.1488 19.4986 21.3499 18.8901 21.3499H6.10988ZM6.10988 19.8999H18.8901C19.0505 19.8999 19.1975 19.8359 19.331 19.7077C19.4645 19.5795 19.5312 19.4384 19.5312 19.2844V10.9154H5.46873V19.2844C5.46873 19.4384 5.53548 19.5795 5.66899 19.7077C5.8025 19.8359 5.94946 19.8999 6.10988 19.8999ZM5.46873 9.46519H19.5312V7.01544C19.5312 6.86144 19.4645 6.72036 19.331 6.59219C19.1975 6.46402 19.0505 6.39994 18.8901 6.39994H6.10988C5.94946 6.39994 5.8025 6.46402 5.66899 6.59219C5.53548 6.72036 5.46873 6.86144 5.46873 7.01544V9.46519Z" fill="#DD0000"/>
</g>
</g>
</svg>
