<svg width="24" height="25" viewBox="0 0 24 25" fill="none" xmlns="http://www.w3.org/2000/svg">
<mask id="mask0_191_5400" style="mask-type:alpha" maskUnits="userSpaceOnUse" x="0" y="0" width="24" height="25">
<rect y="0.5" width="24" height="24" fill="#D9D9D9"/>
</mask>
<g mask="url(#mask0_191_5400)">
<path d="M5 9.30777H19V6.80777C19 6.73077 18.9679 6.66026 18.9038 6.59626C18.8398 6.5321 18.7693 6.50002 18.6923 6.50002H5.30775C5.23075 6.50002 5.16025 6.5321 5.09625 6.59626C5.03208 6.66026 5 6.73077 5 6.80777V9.30777ZM5.30775 22C4.80258 22 4.375 21.825 4.025 21.475C3.675 21.125 3.5 20.6974 3.5 20.1923V6.80777C3.5 6.3026 3.675 5.87502 4.025 5.52502C4.375 5.17502 4.80258 5.00002 5.30775 5.00002H6.69225V2.88477H8.23075V5.00002H15.8078V2.88477H17.3078V5.00002H18.6923C19.1974 5.00002 19.625 5.17502 19.975 5.52502C20.325 5.87502 20.5 6.3026 20.5 6.80777V12.2713C20.2602 12.1661 20.0153 12.0811 19.7653 12.0163C19.5153 11.9516 19.2602 11.9007 19 11.8635V10.8078H5V20.1923C5 20.2693 5.03208 20.3398 5.09625 20.4038C5.16025 20.4679 5.23075 20.5 5.30775 20.5H11.8098C11.8943 20.7768 11.9965 21.0387 12.1165 21.2855C12.2363 21.5323 12.3725 21.7705 12.525 22H5.30775ZM18.1923 23C16.9436 23 15.8814 22.5622 15.0058 21.6865C14.1301 20.8108 13.6923 19.7487 13.6923 18.5C13.6923 17.2513 14.1301 16.1892 15.0058 15.3135C15.8814 14.4378 16.9436 14 18.1923 14C19.4411 14 20.5033 14.4378 21.3788 15.3135C22.2544 16.1892 22.6923 17.2513 22.6923 18.5C22.6923 19.7487 22.2544 20.8108 21.3788 21.6865C20.5033 22.5622 19.4411 23 18.1923 23ZM19.8578 20.7885L20.4808 20.1655L18.6348 18.3193V15.5578H17.75V18.6808L19.8578 20.7885Z" fill="#002F6C"/>
</g>
</svg>
