<svg width="25" height="24" viewBox="0 0 25 24" fill="none" xmlns="http://www.w3.org/2000/svg">
<mask id="mask0_302_4169" style="mask-type:alpha" maskUnits="userSpaceOnUse" x="0" y="0" width="25" height="24">
<rect x="0.5" width="24" height="24" fill="#D9D9D9"/>
</mask>
<g mask="url(#mask0_302_4169)">
<path d="M12.5 14.3037C12.2603 14.3037 12.0472 14.2105 11.8605 14.024C11.674 13.8375 11.5807 13.6243 11.5807 13.3845C11.5807 13.1448 11.674 12.9317 11.8605 12.7452C12.0472 12.5587 12.2603 12.4655 12.5 12.4655C12.7397 12.4655 12.9528 12.5587 13.1395 12.7452C13.326 12.9317 13.4192 13.1448 13.4192 13.3845C13.4192 13.6243 13.326 13.8375 13.1395 14.024C12.9528 14.2105 12.7397 14.3037 12.5 14.3037ZM8.5 14.3037C8.26033 14.3037 8.04716 14.2105 7.8605 14.024C7.674 13.8375 7.58075 13.6243 7.58075 13.3845C7.58075 13.1448 7.674 12.9317 7.8605 12.7452C8.04716 12.5587 8.26033 12.4655 8.5 12.4655C8.73966 12.4655 8.95283 12.5587 9.1395 12.7452C9.326 12.9317 9.41925 13.1448 9.41925 13.3845C9.41925 13.6243 9.326 13.8375 9.1395 14.024C8.95283 14.2105 8.73966 14.3037 8.5 14.3037ZM16.5 14.3037C16.2603 14.3037 16.0472 14.2105 15.8605 14.024C15.674 13.8375 15.5807 13.6243 15.5807 13.3845C15.5807 13.1448 15.674 12.9317 15.8605 12.7452C16.0472 12.5587 16.2603 12.4655 16.5 12.4655C16.7397 12.4655 16.9528 12.5587 17.1395 12.7452C17.326 12.9317 17.4192 13.1448 17.4192 13.3845C17.4192 13.6243 17.326 13.8375 17.1395 14.024C16.9528 14.2105 16.7397 14.3037 16.5 14.3037ZM12.5 18.15C12.2603 18.15 12.0472 18.0567 11.8605 17.8702C11.674 17.6837 11.5807 17.4706 11.5807 17.2307C11.5807 16.9911 11.674 16.7779 11.8605 16.5912C12.0472 16.4047 12.2603 16.3115 12.5 16.3115C12.7397 16.3115 12.9528 16.4047 13.1395 16.5912C13.326 16.7779 13.4192 16.9911 13.4192 17.2307C13.4192 17.4706 13.326 17.6837 13.1395 17.8702C12.9528 18.0567 12.7397 18.15 12.5 18.15ZM8.5 18.15C8.26033 18.15 8.04716 18.0567 7.8605 17.8702C7.674 17.6837 7.58075 17.4706 7.58075 17.2307C7.58075 16.9911 7.674 16.7779 7.8605 16.5912C8.04716 16.4047 8.26033 16.3115 8.5 16.3115C8.73966 16.3115 8.95283 16.4047 9.1395 16.5912C9.326 16.7779 9.41925 16.9911 9.41925 17.2307C9.41925 17.4706 9.326 17.6837 9.1395 17.8702C8.95283 18.0567 8.73966 18.15 8.5 18.15ZM16.5 18.15C16.2603 18.15 16.0472 18.0567 15.8605 17.8702C15.674 17.6837 15.5807 17.4706 15.5807 17.2307C15.5807 16.9911 15.674 16.7779 15.8605 16.5912C16.0472 16.4047 16.2603 16.3115 16.5 16.3115C16.7397 16.3115 16.9528 16.4047 17.1395 16.5912C17.326 16.7779 17.4192 16.9911 17.4192 17.2307C17.4192 17.4706 17.326 17.6837 17.1395 17.8702C16.9528 18.0567 16.7397 18.15 16.5 18.15ZM5.9655 21.75C5.32633 21.75 4.789 21.5321 4.3535 21.0965C3.91783 20.661 3.7 20.1236 3.7 19.4845V6.41548C3.7 5.77631 3.91783 5.23898 4.3535 4.80348C4.789 4.36781 5.32633 4.14998 5.9655 4.14998H6.9345V2.01923H8.6615V4.14998H16.4155V2.01923H18.0655V4.14998H19.0345C19.6737 4.14998 20.211 4.36781 20.6465 4.80348C21.0822 5.23898 21.3 5.77631 21.3 6.41548V19.4845C21.3 20.1236 21.0822 20.661 20.6465 21.0965C20.211 21.5321 19.6737 21.75 19.0345 21.75H5.9655ZM5.9655 20.1H19.0345C19.1885 20.1 19.3296 20.0359 19.4577 19.9077C19.5859 19.7796 19.65 19.6385 19.65 19.4845V10.1155H5.35V19.4845C5.35 19.6385 5.41408 19.7796 5.54225 19.9077C5.67041 20.0359 5.8115 20.1 5.9655 20.1Z" fill="#002F6C"/>
</g>
</svg>
