<svg width="20" height="21" viewBox="0 0 20 21" fill="none" xmlns="http://www.w3.org/2000/svg">
<mask id="mask0_295_2065" style="mask-type:alpha" maskUnits="userSpaceOnUse" x="0" y="0" width="20" height="21">
<rect y="0.5" width="20" height="20" fill="#D9D9D9"/>
</mask>
<g mask="url(#mask0_295_2065)">
<path d="M4.88788 18.2917C4.40107 18.2917 3.99253 18.1265 3.66225 17.7961C3.33183 17.4658 3.16663 17.0573 3.16663 16.5705V6.34632C3.16663 5.86924 3.33426 5.46313 3.66954 5.12799C4.00468 4.79271 4.41079 4.62507 4.88788 4.62507H6.36204V2.51611H7.63454V4.62507H12.4295V2.51611H13.6379V4.62507H15.112C15.5891 4.62507 15.9952 4.79271 16.3304 5.12799C16.6657 5.46313 16.8333 5.86924 16.8333 6.34632V9.26445C16.8333 9.42889 16.7741 9.5707 16.6558 9.68986C16.5375 9.80903 16.3967 9.86861 16.2335 9.86861C16.0703 9.86861 15.9281 9.80903 15.8068 9.68986C15.6856 9.5707 15.625 9.42889 15.625 9.26445V9.59632H4.37496V16.5705C4.37496 16.6988 4.42836 16.8164 4.53517 16.9232C4.64197 17.03 4.75954 17.0834 4.88788 17.0834H10.3541C10.5186 17.0834 10.6604 17.1426 10.7795 17.2609C10.8987 17.3792 10.9583 17.52 10.9583 17.6832C10.9583 17.8464 10.8987 17.9886 10.7795 18.1099C10.6604 18.2311 10.5186 18.2917 10.3541 18.2917H4.88788ZM16.0241 19.2501C14.9791 19.2501 14.0936 18.8856 13.3677 18.1565C12.6417 17.4274 12.2787 16.5403 12.2787 15.4953C12.2787 14.4503 12.6433 13.5649 13.3725 12.839C14.1015 12.1131 14.9885 11.7501 16.0335 11.7501C17.0785 11.7501 17.964 12.1146 18.69 12.8436C19.4158 13.5728 19.7787 14.4599 19.7787 15.5049C19.7787 16.5499 19.4142 17.4353 18.6852 18.1611C17.9561 18.8871 17.0691 19.2501 16.0241 19.2501ZM17.1379 17.3142L17.8012 16.6507L16.4743 15.3238V13.0963H15.5416V15.718L17.1379 17.3142Z" fill="#00A9DF"/>
</g>
</svg>
