<svg width="24" height="24" viewBox="0 0 24 24" fill="none" xmlns="http://www.w3.org/2000/svg">
<mask id="mask0_284_3732" style="mask-type:alpha" maskUnits="userSpaceOnUse" x="0" y="0" width="24" height="24">
<rect width="24" height="24" fill="#D9D9D9"/>
</mask>
<g mask="url(#mask0_284_3732)">
<path d="M18.2345 21.7C16.9268 21.7 15.8165 21.2436 14.9037 20.3307C13.9909 19.4181 13.5345 18.3078 13.5345 17C13.5345 15.6922 13.9909 14.5819 14.9037 13.6692C15.8165 12.7564 16.9268 12.3 18.2345 12.3C19.5423 12.3 20.6526 12.7564 21.5655 13.6692C22.4781 14.5819 22.9345 15.6922 22.9345 17C22.9345 18.3078 22.4781 19.4181 21.5655 20.3307C20.6526 21.2436 19.5423 21.7 18.2345 21.7ZM19.8655 19.327L20.5115 18.6807L18.6692 16.8385V13.5155H17.75V17.2115L19.8655 19.327ZM5.46545 20.65C4.81795 20.65 4.27845 20.4343 3.84695 20.003C3.41562 19.5715 3.19995 19.032 3.19995 18.3845V5.31548C3.19995 4.66798 3.41562 4.12848 3.84695 3.69699C4.27845 3.26565 4.81795 3.04998 5.46545 3.04998H9.80195C10.0121 2.60898 10.3069 2.25965 10.6862 2.00199C11.0655 1.74415 11.5035 1.61523 12 1.61523C12.4691 1.61523 12.9012 1.74415 13.2962 2.00199C13.691 2.25965 13.9935 2.60898 14.2037 3.04998H18.5345C19.182 3.04998 19.7215 3.26565 20.153 3.69699C20.5843 4.12848 20.8 4.66798 20.8 5.31548V10.7345C20.6281 10.6462 20.3736 10.552 20.0365 10.452C19.6993 10.352 19.4038 10.2923 19.15 10.273V5.31548C19.15 5.16148 19.0859 5.0204 18.9577 4.89223C18.8295 4.76407 18.6885 4.69998 18.5345 4.69998H16.15V7.93073H7.84995V4.69998H5.46545C5.31145 4.69998 5.17037 4.76407 5.0422 4.89223C4.91403 5.0204 4.84995 5.16148 4.84995 5.31548V18.3845C4.84995 18.564 4.90762 18.7115 5.02295 18.827C5.13845 18.9423 5.28595 19 5.46545 19H11.8672C11.9199 19.2538 12.0244 19.5359 12.1807 19.8462C12.3372 20.1564 12.5141 20.4243 12.7115 20.65H5.46545ZM12.025 4.88073C12.257 4.88073 12.4496 4.80415 12.603 4.65098C12.7561 4.49782 12.8327 4.30515 12.8327 4.07298C12.8327 3.84098 12.7561 3.6484 12.603 3.49523C12.4496 3.34207 12.257 3.26548 12.025 3.26548C11.793 3.26548 11.6003 3.34207 11.447 3.49523C11.2938 3.6484 11.2172 3.84098 11.2172 4.07298C11.2172 4.30515 11.2938 4.49782 11.447 4.65098C11.6003 4.80415 11.793 4.88073 12.025 4.88073Z" fill="white"/>
</g>
</svg>
