<svg width="20" height="20" viewBox="0 0 20 20" fill="none" xmlns="http://www.w3.org/2000/svg">
<mask id="mask0_295_2110" style="mask-type:alpha" maskUnits="userSpaceOnUse" x="0" y="0" width="20" height="20">
<rect width="20" height="20" fill="#D9D9D9"/>
</mask>
<g mask="url(#mask0_295_2110)">
<path d="M15.8959 16.979C14.2153 16.854 12.6216 16.4408 11.1146 15.7394C9.60769 15.038 8.25699 14.0901 7.06255 12.8957C5.8681 11.7012 4.92366 10.3505 4.22921 8.84359C3.53477 7.33664 3.12505 5.74289 3.00005 4.06234C2.97227 3.77067 3.05907 3.5172 3.26046 3.30192C3.46185 3.08664 3.70838 2.979 4.00005 2.979H6.83338C7.06949 2.979 7.27435 3.05192 7.44796 3.19775C7.62157 3.34359 7.73616 3.52762 7.79171 3.74984L8.29171 5.979C8.31949 6.15956 8.30907 6.33317 8.26046 6.49984C8.21185 6.6665 8.13199 6.80539 8.02088 6.9165L6.00005 8.95817C6.27782 9.48595 6.59727 9.99289 6.95838 10.479C7.31949 10.9651 7.72227 11.4234 8.16671 11.854C8.58338 12.2707 9.02782 12.6561 9.50005 13.0103C9.97227 13.3644 10.4723 13.6804 11 13.9582L13.0625 11.9582C13.1737 11.8471 13.3125 11.7672 13.4792 11.7186C13.6459 11.67 13.8195 11.6596 14 11.6873L16.2292 12.1665C16.4653 12.2359 16.6528 12.3575 16.7917 12.5311C16.9306 12.7047 17 12.9096 17 13.1457V15.979C17 16.2707 16.8889 16.5172 16.6667 16.7186C16.4445 16.92 16.1875 17.0068 15.8959 16.979Z" fill="white"/>
</g>
</svg>
