<svg width="24" height="24" viewBox="0 0 24 24" fill="none" xmlns="http://www.w3.org/2000/svg">
<mask id="mask0_269_2049" style="mask-type:alpha" maskUnits="userSpaceOnUse" x="0" y="0" width="24" height="24">
<rect width="24" height="24" fill="#D9D9D9"/>
</mask>
<g mask="url(#mask0_269_2049)">
<path d="M20.2402 21.3C18.1057 21.3 15.9875 20.8326 13.8855 19.898C11.7836 18.9633 9.85962 17.623 8.11345 15.877C6.37378 14.1475 5.03662 12.2291 4.10195 10.122C3.16728 8.01495 2.69995 5.8942 2.69995 3.7597C2.69995 3.42637 2.79162 3.16637 2.97495 2.9797C3.15828 2.7932 3.41662 2.69995 3.74995 2.69995H7.96145C8.21395 2.69995 8.44087 2.78237 8.6422 2.9472C8.84353 3.11187 8.97879 3.31537 9.04795 3.5577L9.7212 7.24995C9.76087 7.48962 9.75253 7.70754 9.6962 7.9037C9.6397 8.09987 9.55503 8.24795 9.4422 8.34795L6.9077 10.8462C7.2627 11.4769 7.66653 12.0791 8.1192 12.653C8.5717 13.2266 9.0762 13.798 9.6327 14.3672C10.1647 14.8827 10.7147 15.3632 11.2827 15.8087C11.8507 16.2542 12.443 16.6545 13.0597 17.0097L15.7037 14.4462C15.8435 14.3 15.9872 14.2067 16.1347 14.1662C16.282 14.1259 16.4423 14.1224 16.6155 14.1557L20.3922 14.9712C20.6447 15.0379 20.8591 15.1667 21.0355 15.3577C21.2118 15.5487 21.3 15.7654 21.3 16.0077V20.25C21.3 20.5833 21.2067 20.8416 21.0202 21.025C20.8335 21.2083 20.5735 21.3 20.2402 21.3Z" fill="#002F6C"/>
</g>
</svg>
