<svg width="24" height="24" viewBox="0 0 24 24" fill="none" xmlns="http://www.w3.org/2000/svg">
<mask id="mask0_331_1147" style="mask-type:alpha" maskUnits="userSpaceOnUse" x="0" y="0" width="24" height="24">
<rect width="24" height="24" fill="#D9D9D9"/>
</mask>
<g mask="url(#mask0_331_1147)">
<path d="M10.5807 16.7537L17.8537 9.4807L16.35 7.97695L10.5807 13.7462L7.6807 10.8462L6.17695 12.35L10.5807 16.7537ZM12.0017 22.3C10.577 22.3 9.23795 22.0296 7.98445 21.489C6.73095 20.9483 5.64062 20.2145 4.71345 19.2877C3.78628 18.3609 3.0522 17.271 2.5112 16.018C1.97037 14.765 1.69995 13.4262 1.69995 12.0017C1.69995 10.5727 1.97078 9.22962 2.51245 7.97245C3.05412 6.71528 3.7892 5.6217 4.7177 4.6917C5.6462 3.7617 6.73612 3.03053 7.98745 2.4982C9.23862 1.96603 10.5755 1.69995 11.9982 1.69995C13.427 1.69995 14.77 1.96595 16.027 2.49795C17.2841 3.02995 18.3778 3.76087 19.308 4.6907C20.2381 5.62053 20.9694 6.71395 21.5017 7.97095C22.0339 9.22795 22.3 10.5711 22.3 12.0005C22.3 13.4296 22.034 14.7681 21.502 16.016C20.97 17.2638 20.2391 18.3521 19.3095 19.281C18.3798 20.2098 17.2866 20.9452 16.03 21.4872C14.7733 22.029 13.4305 22.3 12.0017 22.3Z" fill="#C8C9CC"/>
</g>
</svg>
