<svg width="21" height="20" viewBox="0 0 21 20" fill="none" xmlns="http://www.w3.org/2000/svg">
<g id="delete_forever">
<mask id="mask0_185_4161" style="mask-type:alpha" maskUnits="userSpaceOnUse" x="0" y="0" width="21" height="20">
<rect id="Bounding box" x="0.333496" width="20" height="20" fill="#D9D9D9"/>
</mask>
<g mask="url(#mask0_185_4161)">
<path id="delete_forever_2" d="M8.64592 13.0689L10.3542 11.3606L12.0626 13.0689L12.9232 12.2083L11.2149 10.4999L12.9232 8.7916L12.0626 7.93097L10.3542 9.6393L8.64592 7.93097L7.78529 8.7916L9.49362 10.4999L7.78529 12.2083L8.64592 13.0689ZM7.263 16.8333C6.76828 16.8333 6.35772 16.6701 6.03133 16.3437C5.70494 16.0173 5.54175 15.6067 5.54175 15.112V5.4166H4.54175V4.20826H8.29175V3.23389H12.4167V4.20826H16.1667V5.4166H15.1667V15.112C15.1667 15.6067 15.0036 16.0173 14.6772 16.3437C14.3508 16.6701 13.9402 16.8333 13.4455 16.8333H7.263Z" fill="white"/>
</g>
</g>
</svg>
