<svg width="24" height="24" viewBox="0 0 24 24" fill="none" xmlns="http://www.w3.org/2000/svg">
<mask id="mask0_299_3035" style="mask-type:alpha" maskUnits="userSpaceOnUse" x="0" y="0" width="24" height="24">
<rect width="24" height="24" fill="#D9D9D9"/>
</mask>
<g mask="url(#mask0_299_3035)">
<path d="M8.17499 14.8251H9.82499V11.8251H13.675V14.0636L16.7385 11.0001L13.675 7.89234V10.1751H9.30774C8.99557 10.1751 8.72874 10.2851 8.50724 10.5051C8.28574 10.7251 8.17499 10.9901 8.17499 11.3001V14.8251ZM12.0037 21.4058C11.7026 21.4058 11.408 21.3654 11.12 21.2846C10.832 21.2039 10.5901 21.0662 10.3942 20.8713L3.12874 13.6058C2.93391 13.4115 2.79616 13.1713 2.71549 12.8851C2.63466 12.5989 2.59424 12.3052 2.59424 12.0038C2.59424 11.7027 2.63882 11.4123 2.72799 11.1326C2.81699 10.8529 2.95891 10.6152 3.15374 10.4193L10.4192 3.15384C10.6136 2.959 10.8538 2.81292 11.14 2.71559C11.4262 2.61809 11.7199 2.56934 12.0212 2.56934C12.3224 2.56934 12.6128 2.61392 12.8925 2.70309C13.1722 2.79209 13.4099 2.934 13.6057 3.12884L20.8712 10.3943C21.0661 10.5887 21.208 10.8248 21.297 11.1026C21.3862 11.3804 21.4307 11.67 21.4307 11.9713C21.4307 12.2725 21.382 12.5671 21.2845 12.8551C21.1872 13.1431 21.0411 13.385 20.8462 13.5808L13.5807 20.8463C13.3864 21.0412 13.1503 21.1831 12.8725 21.2721C12.5947 21.3613 12.3051 21.4058 12.0037 21.4058Z" fill="#00A9DF"/>
</g>
</svg>
