<svg width="24" height="24" viewBox="0 0 24 24" fill="none" xmlns="http://www.w3.org/2000/svg">
<mask id="mask0_269_2057" style="mask-type:alpha" maskUnits="userSpaceOnUse" x="0" y="0" width="24" height="24">
<rect width="24" height="24" fill="#D9D9D9"/>
</mask>
<g mask="url(#mask0_269_2057)">
<path d="M12 23.275C9.71031 23.275 7.84206 22.9282 6.39523 22.2345C4.94839 21.541 4.22498 20.6379 4.22498 19.525C4.22498 18.9712 4.44648 18.4465 4.88948 17.951C5.33231 17.4555 5.94798 17.0276 6.73648 16.6673L8.06723 18.4713C7.68523 18.6366 7.35798 18.8039 7.08548 18.973C6.81314 19.1424 6.59489 19.3264 6.43073 19.525C6.66273 19.9815 7.32556 20.3623 8.41923 20.6673C9.51273 20.9725 10.7146 21.125 12.025 21.125C13.3288 21.125 14.5234 20.9725 15.6087 20.6673C16.6939 20.3623 17.3526 19.9815 17.5847 19.525C17.3872 19.3097 17.1564 19.119 16.8922 18.953C16.6282 18.7869 16.3135 18.6263 15.948 18.4713L17.3135 16.6673C18.102 17.0276 18.7093 17.4597 19.1355 17.9635C19.5618 18.4674 19.775 18.9879 19.775 19.525C19.775 20.6379 19.0516 21.541 17.6047 22.2345C16.1579 22.9282 14.2896 23.275 12 23.275ZM12 15.9693C12.3333 15.3668 12.6942 14.777 13.0827 14.2C13.4712 13.6232 13.861 13.0828 14.252 12.5788C14.9315 11.693 15.4718 10.9013 15.873 10.2038C16.2743 9.50647 16.475 8.62188 16.475 7.55005C16.475 6.31922 16.0368 5.26572 15.1605 4.38955C14.2843 3.51322 13.2308 3.07505 12 3.07505C10.7691 3.07505 9.71564 3.51322 8.83948 4.38955C7.96314 5.26572 7.52498 6.31922 7.52498 7.55005C7.52498 8.62188 7.72723 9.50647 8.13173 10.2038C8.53623 10.9013 9.07498 11.693 9.74798 12.5788C10.139 13.0828 10.5287 13.6232 10.9172 14.2C11.3057 14.777 11.6666 15.3668 12 15.9693ZM12 19.3173C11.7858 19.3173 11.5893 19.2423 11.4105 19.0923C11.2316 18.9423 11.1006 18.757 11.0172 18.5366C10.5082 17.3174 9.93006 16.2995 9.28273 15.4828C8.63523 14.6661 8.01598 13.877 7.42498 13.1153C6.85064 12.3538 6.36539 11.5506 5.96923 10.7058C5.57306 9.86096 5.37498 8.80905 5.37498 7.55005C5.37498 5.70388 6.01764 4.13822 7.30298 2.85305C8.58814 1.56772 10.1538 0.925049 12 0.925049C13.8461 0.925049 15.4118 1.56772 16.697 2.85305C17.9823 4.13822 18.625 5.70388 18.625 7.55005C18.625 8.80905 18.4311 9.86096 18.0432 10.7058C17.6554 11.5506 17.166 12.3538 16.575 13.1153C16.0006 13.877 15.3856 14.6661 14.7297 15.4828C14.0741 16.2995 13.4917 17.3174 12.9827 18.5366C12.8994 18.757 12.7683 18.9423 12.5895 19.0923C12.4106 19.2423 12.2141 19.3173 12 19.3173ZM12 9.50205C12.5563 9.50205 13.0207 9.3158 13.3932 8.9433C13.7657 8.5708 13.952 8.10638 13.952 7.55005C13.952 6.99372 13.7657 6.5293 13.3932 6.1568C13.0207 5.7843 12.5563 5.59805 12 5.59805C11.4436 5.59805 10.9792 5.7843 10.6067 6.1568C10.2342 6.5293 10.048 6.99372 10.048 7.55005C10.048 8.10638 10.2342 8.5708 10.6067 8.9433C10.9792 9.3158 11.4436 9.50205 12 9.50205Z" fill="#002F6C"/>
</g>
</svg>
