<svg width="24" height="24" viewBox="0 0 24 24" fill="none" xmlns="http://www.w3.org/2000/svg">
<mask id="mask0_269_2041" style="mask-type:alpha" maskUnits="userSpaceOnUse" x="0" y="0" width="24" height="24">
<rect width="24" height="24" fill="#D9D9D9"/>
</mask>
<g mask="url(#mask0_269_2041)">
<path d="M2.36548 20.577V3.07703H11.8652V7.07703H21.6345V20.577H2.36548ZM3.86523 19.077H6.36548V16.577H3.86523V19.077ZM3.86523 15.077H6.36548V12.577H3.86523V15.077ZM3.86523 11.077H6.36548V8.57703H3.86523V11.077ZM3.86523 7.07703H6.36548V4.57703H3.86523V7.07703ZM7.86523 19.077H10.3655V16.577H7.86523V19.077ZM7.86523 15.077H10.3655V12.577H7.86523V15.077ZM7.86523 11.077H10.3655V8.57703H7.86523V11.077ZM7.86523 7.07703H10.3655V4.57703H7.86523V7.07703ZM11.8652 19.077H20.1347V8.57703H11.8652V11.077H14.0577V12.577H11.8652V15.077H14.0577V16.577H11.8652V19.077ZM16.25 12.577V11.077H17.75V12.577H16.25ZM16.25 16.577V15.077H17.75V16.577H16.25Z" fill="#002F6C"/>
</g>
</svg>
