<svg width="20" height="20" viewBox="0 0 20 20" fill="none" xmlns="http://www.w3.org/2000/svg">
<g id="border_color">
<mask id="mask0_185_4279" style="mask-type:alpha" maskUnits="userSpaceOnUse" x="0" y="0" width="20" height="20">
<rect id="Bounding box" width="20" height="20" fill="#D9D9D9"/>
</mask>
<g mask="url(#mask0_185_4279)">
<path id="border_color_2" d="M1.83337 20.9584V17.5417H18.1667V20.9584H1.83337ZM4.06254 13.7309V10.8576L12.8911 2.05297C12.9936 1.96422 13.0859 1.90651 13.1682 1.87984C13.2502 1.85318 13.3239 1.83984 13.3892 1.83984C13.4652 1.83984 13.54 1.8497 13.6138 1.86943C13.6875 1.88915 13.7572 1.93762 13.8227 2.01484L15.7405 3.91984C15.8045 4.02248 15.856 4.1072 15.895 4.17401C15.9341 4.24068 15.9536 4.31366 15.9536 4.39297C15.9536 4.47352 15.9344 4.55637 15.8961 4.64151C15.8577 4.72651 15.808 4.80658 15.7467 4.88172L6.93754 13.7309H4.06254ZM13.0673 5.93276L14.5786 4.42151L13.3719 3.21484L11.8607 4.72609L13.0673 5.93276Z" fill="white"/>
</g>
</g>
</svg>
