<svg width="24" height="25" viewBox="0 0 24 25" fill="none" xmlns="http://www.w3.org/2000/svg">
<mask id="mask0_174_1757" style="mask-type:alpha" maskUnits="userSpaceOnUse" x="0" y="0" width="24" height="25">
<rect y="0.5" width="24" height="24" fill="#D9D9D9"/>
</mask>
<g mask="url(#mask0_174_1757)">
<path d="M12.0017 22C10.6877 22 9.45267 21.7507 8.2965 21.252C7.14033 20.7533 6.13467 20.0766 5.2795 19.2218C4.42433 18.3669 3.74725 17.3617 3.24825 16.206C2.74942 15.0503 2.5 13.8156 2.5 12.5017C2.5 11.1877 2.74933 9.95267 3.248 8.7965C3.74667 7.64033 4.42342 6.63467 5.27825 5.7795C6.13308 4.92433 7.13833 4.24725 8.294 3.74825C9.44967 3.24942 10.6844 3 11.9983 3C13.3123 3 14.5473 3.24933 15.7035 3.748C16.8597 4.24667 17.8653 4.92342 18.7205 5.77825C19.5757 6.63308 20.2528 7.63833 20.7518 8.794C21.2506 9.94967 21.5 11.1844 21.5 12.4983C21.5 13.8123 21.2507 15.0473 20.752 16.2035C20.2533 17.3597 19.5766 18.3653 18.7218 19.2205C17.8669 20.0757 16.8617 20.7528 15.706 21.2518C14.5503 21.7506 13.3156 22 12.0017 22ZM12 20.5C14.2333 20.5 16.125 19.725 17.675 18.175C19.225 16.625 20 14.7333 20 12.5C20 10.2667 19.225 8.375 17.675 6.825C16.125 5.275 14.2333 4.5 12 4.5C9.76667 4.5 7.875 5.275 6.325 6.825C4.775 8.375 4 10.2667 4 12.5C4 14.7333 4.775 16.625 6.325 18.175C7.875 19.725 9.76667 20.5 12 20.5ZM8.30775 16.1923V13.55L13.7365 8.14625C13.8608 8.02825 13.9951 7.94233 14.1393 7.8885C14.2834 7.83467 14.4276 7.80775 14.5717 7.80775C14.7291 7.80775 14.8812 7.83725 15.028 7.89625C15.175 7.95525 15.3086 8.04367 15.4288 8.1615L16.3538 9.09625C16.4614 9.22058 16.5448 9.35517 16.6038 9.5C16.6628 9.64483 16.6923 9.78967 16.6923 9.9345C16.6923 10.0795 16.6653 10.227 16.6115 10.377C16.5577 10.527 16.4718 10.6642 16.3538 10.7885L10.95 16.1923H8.30775ZM9.5 15H10.45L13.6962 11.7385L13.2462 11.2535L12.7713 10.7943L9.5 14.05V15ZM13.2462 11.2535L12.7713 10.7943L13.6962 11.7385L13.2462 11.2535Z" fill="#959699"/>
</g>
</svg>
