<svg width="20" height="20" viewBox="0 0 20 20" fill="none" xmlns="http://www.w3.org/2000/svg">
<mask id="mask0_179_2438" style="mask-type:alpha" maskUnits="userSpaceOnUse" x="0" y="0" width="20" height="20">
<rect width="20" height="20" fill="#D9D9D9"/>
</mask>
<g mask="url(#mask0_179_2438)">
<path d="M10.0325 14.6795C10.2565 14.6795 10.4471 14.6008 10.6042 14.4436C10.7612 14.2863 10.8398 14.0955 10.8398 13.8713C10.8398 13.6473 10.7611 13.4567 10.6037 13.2997C10.4464 13.1427 10.2557 13.0642 10.0317 13.0642C9.80763 13.0642 9.61707 13.1429 9.45999 13.3003C9.30291 13.4577 9.22436 13.6483 9.22436 13.8724C9.22436 14.0964 9.30305 14.287 9.46041 14.444C9.61777 14.601 9.80846 14.6795 10.0325 14.6795ZM9.44228 11.7163H10.5946C10.6053 11.2506 10.6584 10.9195 10.7539 10.7228C10.8496 10.5263 11.039 10.2881 11.3221 10.0082C11.8136 9.53057 12.1464 9.13307 12.3204 8.81571C12.4946 8.49849 12.5817 8.15633 12.5817 7.78925C12.5817 7.08578 12.3483 6.50112 11.8814 6.03529C11.4145 5.5696 10.8151 5.33675 10.0833 5.33675C9.4711 5.33675 8.92332 5.50154 8.43999 5.83112C7.95652 6.16071 7.61062 6.60487 7.40228 7.16362L8.45187 7.61383C8.60895 7.19828 8.82423 6.89751 9.0977 6.71154C9.37117 6.52571 9.68048 6.43279 10.0256 6.43279C10.4626 6.43279 10.8127 6.55723 11.076 6.80612C11.3395 7.05515 11.4712 7.37619 11.4712 7.76925C11.4712 8.09411 11.3662 8.37751 11.1562 8.61946C10.9464 8.8614 10.7095 9.10578 10.4456 9.35258C10.0235 9.74897 9.75082 10.0976 9.62749 10.3984C9.50402 10.6991 9.44228 11.1384 9.44228 11.7163ZM10.0014 17.5834C8.962 17.5834 7.98138 17.3861 7.05957 16.9913C6.13777 16.5966 5.33096 16.0535 4.63916 15.362C3.94735 14.6704 3.40395 13.864 3.00895 12.9426C2.61409 12.0212 2.41666 11.0408 2.41666 10.0015C2.41666 8.94821 2.61402 7.96411 3.00874 7.04925C3.40346 6.13439 3.94659 5.33105 4.63811 4.63925C5.32964 3.94744 6.1361 3.40404 7.05749 3.00904C7.97888 2.61418 8.95923 2.41675 9.99853 2.41675C11.0519 2.41675 12.036 2.61411 12.9508 3.00883C13.8657 3.40355 14.669 3.94668 15.3608 4.63821C16.0526 5.32973 16.596 6.13272 16.991 7.04716C17.3859 7.96161 17.5833 8.94543 17.5833 9.99862C17.5833 11.0381 17.386 12.0187 16.9912 12.9405C16.5965 13.8623 16.0534 14.6691 15.3619 15.3609C14.6703 16.0527 13.8674 16.5961 12.9529 16.9911C12.0385 17.386 11.0546 17.5834 10.0014 17.5834Z" fill="#959699"/>
</g>
</svg>
