<svg width="24" height="24" viewBox="0 0 24 24" fill="none" xmlns="http://www.w3.org/2000/svg">
<mask id="mask0_191_5364" style="mask-type:alpha" maskUnits="userSpaceOnUse" x="0" y="0" width="24" height="24">
<rect width="24" height="24" fill="#D9D9D9"/>
</mask>
<g mask="url(#mask0_191_5364)">
<path d="M8.11673 17.0636C8.41839 17.0636 8.67598 16.9564 8.88948 16.7421C9.10281 16.5278 9.20948 16.2698 9.20948 15.9681C9.20948 15.6664 9.10231 15.4088 8.88798 15.1953C8.67364 14.9818 8.41564 14.8751 8.11398 14.8751C7.81231 14.8751 7.55473 14.9823 7.34123 15.1966C7.12789 15.4109 7.02123 15.6689 7.02123 15.9706C7.02123 16.2723 7.12839 16.5298 7.34273 16.7433C7.55706 16.9568 7.81506 17.0636 8.11673 17.0636ZM8.11673 13.0943C8.41839 13.0943 8.67598 12.9872 8.88948 12.7728C9.10281 12.5585 9.20948 12.3005 9.20948 11.9988C9.20948 11.6972 9.10231 11.4396 8.88798 11.2261C8.67364 11.0126 8.41564 10.9058 8.11398 10.9058C7.81231 10.9058 7.55473 11.013 7.34123 11.2273C7.12789 11.4417 7.02123 11.6997 7.02123 12.0013C7.02123 12.303 7.12839 12.5606 7.34273 12.7741C7.55706 12.9876 7.81506 13.0943 8.11673 13.0943ZM8.11673 9.0751C8.41839 9.0751 8.67598 8.96793 8.88948 8.7536C9.10281 8.53927 9.20948 8.28126 9.20948 7.9796C9.20948 7.67793 9.10231 7.42035 8.88798 7.20685C8.67364 6.99335 8.41564 6.8866 8.11398 6.8866C7.81231 6.8866 7.55473 6.99376 7.34123 7.2081C7.12789 7.42243 7.02123 7.68043 7.02123 7.9821C7.02123 8.28377 7.12839 8.54135 7.34273 8.75485C7.55706 8.96835 7.81506 9.0751 8.11673 9.0751ZM11.0422 16.8193H16.927V15.1693H11.0422V16.8193ZM11.0422 12.8001H16.927V11.1501H11.0422V12.8001ZM11.0422 8.83085H16.927V7.18085H11.0422V8.83085ZM5.61548 20.6501C4.97631 20.6501 4.43898 20.4323 4.00348 19.9966C3.56781 19.5611 3.34998 19.0238 3.34998 18.3846V5.6156C3.34998 4.97643 3.56781 4.4391 4.00348 4.0036C4.43898 3.56793 4.97631 3.3501 5.61548 3.3501H18.3845C19.0236 3.3501 19.561 3.56793 19.9965 4.0036C20.4321 4.4391 20.65 4.97643 20.65 5.6156V18.3846C20.65 19.0238 20.4321 19.5611 19.9965 19.9966C19.561 20.4323 19.0236 20.6501 18.3845 20.6501H5.61548ZM5.61548 19.0001H18.3845C18.5385 19.0001 18.6796 18.936 18.8077 18.8078C18.9359 18.6797 19 18.5386 19 18.3846V5.6156C19 5.4616 18.9359 5.32051 18.8077 5.19235C18.6796 5.06418 18.5385 5.0001 18.3845 5.0001H5.61548C5.46148 5.0001 5.32039 5.06418 5.19223 5.19235C5.06406 5.32051 4.99998 5.4616 4.99998 5.6156V18.3846C4.99998 18.5386 5.06406 18.6797 5.19223 18.8078C5.32039 18.936 5.46148 19.0001 5.61548 19.0001Z" fill="#00A9DF"/>
</g>
</svg>
