<svg width="20" height="20" viewBox="0 0 20 20" fill="none" xmlns="http://www.w3.org/2000/svg">
<mask id="mask0_299_2996" style="mask-type:alpha" maskUnits="userSpaceOnUse" x="0" y="0" width="20" height="20">
<rect width="20" height="20" fill="#D9D9D9"/>
</mask>
<g mask="url(#mask0_299_2996)">
<path d="M10.0054 9.98412C10.3886 9.98412 10.7148 9.84773 10.9839 9.57495C11.2532 9.30204 11.3879 8.97405 11.3879 8.591C11.3879 8.2078 11.2514 7.88155 10.9785 7.61225C10.7057 7.34308 10.3777 7.2085 9.99455 7.2085C9.61136 7.2085 9.28518 7.34489 9.01601 7.61766C8.7467 7.89058 8.61205 8.21864 8.61205 8.60183C8.61205 8.98489 8.74851 9.31107 9.02143 9.58037C9.2942 9.84954 9.62219 9.98412 10.0054 9.98412ZM9.99997 17.8704C7.83358 16.0537 6.22309 14.3896 5.16851 12.8781C4.11379 11.3666 3.58643 9.93398 3.58643 8.58037C3.58643 7.05357 4.15351 5.59947 5.28768 4.21808C6.4217 2.83669 7.989 2.146 9.98955 2.146C11.9901 2.146 13.5609 2.83669 14.7018 4.21808C15.843 5.59947 16.4135 7.05357 16.4135 8.58037C16.4135 9.93398 15.8897 11.3634 14.8421 12.8687C13.7946 14.3741 12.1805 16.0413 9.99997 17.8704Z" fill="#00A9DF"/>
</g>
</svg>
