<svg width="16" height="20" viewBox="0 0 16 20" fill="none" xmlns="http://www.w3.org/2000/svg">
<path d="M8.24615 16.8461C8.4205 16.8294 8.56409 16.7642 8.67692 16.6504C8.78974 16.5366 8.84615 16.3994 8.84615 16.2387C8.84615 16.0513 8.78467 15.9028 8.6617 15.7932C8.53875 15.6836 8.38164 15.6371 8.19037 15.6538C7.50704 15.7038 6.76281 15.5034 5.95767 15.0528C5.15256 14.6022 4.65 13.8185 4.45 12.7018C4.41667 12.5313 4.34519 12.3973 4.23557 12.2999C4.12596 12.2025 3.99551 12.1538 3.84422 12.1538C3.66217 12.1538 3.51057 12.222 3.38942 12.3586C3.26827 12.4951 3.2295 12.6704 3.2731 12.8845C3.5436 14.3371 4.19744 15.3755 5.23462 15.9999C6.27181 16.6243 7.27565 16.9063 8.24615 16.8461ZM7.99822 19.4999C5.85711 19.4999 4.07213 18.7643 2.6433 17.2932C1.21445 15.8221 0.500025 13.991 0.500025 11.7999C0.500025 10.2486 1.12086 8.54833 2.36252 6.69898C3.60419 4.84962 5.48335 2.83456 8 0.653809C10.5166 2.83456 12.3958 4.84962 13.6375 6.69898C14.8791 8.54833 15.5 10.2486 15.5 11.7999C15.5 13.991 14.785 15.8221 13.355 17.2932C11.9249 18.7643 10.1393 19.4999 7.99822 19.4999ZM8 17.9999C9.73333 17.9999 11.1667 17.4124 12.3 16.2374C13.4333 15.0624 14 13.5832 14 11.7999C14 10.5832 13.4958 9.20824 12.4875 7.67491C11.4792 6.14158 9.98333 4.46658 8 2.64991C6.01667 4.46658 4.52083 6.14158 3.5125 7.67491C2.50417 9.20824 2 10.5832 2 11.7999C2 13.5832 2.56667 15.0624 3.7 16.2374C4.83333 17.4124 6.26667 17.9999 8 17.9999Z" fill="#002F6C"/>
</svg>
