<svg width="24" height="24" viewBox="0 0 24 24" fill="none" xmlns="http://www.w3.org/2000/svg">
<mask id="mask0_284_3737" style="mask-type:alpha" maskUnits="userSpaceOnUse" x="0" y="0" width="24" height="24">
<rect width="24" height="24" fill="#D9D9D9"/>
</mask>
<g mask="url(#mask0_284_3737)">
<path d="M17.8 11.7384L15.0115 8.94987L16.175 7.81138L17.8 9.41138L21.55 5.68638L22.7327 6.84987L17.8 11.7384ZM8.75 11.0844C7.7525 11.0844 6.9115 10.7421 6.227 10.0576C5.54233 9.37296 5.2 8.53188 5.2 7.53437C5.2 6.53704 5.54233 5.69604 6.227 5.01138C6.9115 4.32671 7.7525 3.98438 8.75 3.98438C9.7475 3.98438 10.5885 4.32671 11.273 5.01138C11.9577 5.69604 12.3 6.53704 12.3 7.53437C12.3 8.53188 11.9577 9.37296 11.273 10.0576C10.5885 10.7421 9.7475 11.0844 8.75 11.0844ZM1 20.1404V17.7191C1 17.1896 1.13683 16.7075 1.4105 16.2729C1.68433 15.8384 2.05775 15.505 2.53075 15.2729C3.54108 14.7704 4.56867 14.3935 5.6135 14.1421C6.65833 13.891 7.70383 13.7654 8.75 13.7654C9.79617 13.7654 10.8417 13.891 11.8865 14.1421C12.9313 14.3935 13.9589 14.7704 14.9693 15.2729C15.4423 15.505 15.8157 15.8384 16.0895 16.2729C16.3632 16.7075 16.5 17.1896 16.5 17.7191V20.1404H1Z" fill="#002F6C"/>
</g>
</svg>
