<svg width="25" height="25" viewBox="0 0 25 25" fill="none" xmlns="http://www.w3.org/2000/svg">
<mask id="mask0_284_3387" style="mask-type:alpha" maskUnits="userSpaceOnUse" x="0" y="0" width="25" height="25">
<rect y="0.5" width="25" height="24" fill="#D9D9D9"/>
</mask>
<g mask="url(#mask0_284_3387)">
<path d="M7.75631 8.65377C7.23426 8.65377 6.78929 8.47676 6.42141 8.12276C6.05353 7.76876 5.86959 7.34326 5.86959 6.84626V5.19227C5.86959 4.69527 6.05396 4.26977 6.42271 3.91577C6.79146 3.56177 7.23469 3.38477 7.7524 3.38477H17.2438C17.7659 3.38477 18.2108 3.56177 18.5787 3.91577C18.9466 4.26977 19.1305 4.69527 19.1305 5.19227V6.84626C19.1305 7.34326 18.9461 7.76876 18.5774 8.12276C18.2087 8.47676 17.7654 8.65377 17.2477 8.65377H7.75631ZM7.7524 7.15401H17.2477C17.3479 7.15401 17.4264 7.12677 17.4831 7.07227C17.5397 7.01777 17.568 6.94243 17.568 6.84626V5.19227C17.568 5.0961 17.5397 5.02085 17.4831 4.96651C17.4264 4.91201 17.3479 4.88477 17.2477 4.88477H7.7524C7.65223 4.88477 7.57375 4.91201 7.51698 4.96651C7.46039 5.02085 7.43209 5.0961 7.43209 5.19227V6.84626C7.43209 6.94243 7.46039 7.01777 7.51698 7.07227C7.57375 7.12677 7.65223 7.15401 7.7524 7.15401ZM4.88782 21.6153C4.37011 21.6153 3.92688 21.4383 3.55813 21.0843C3.18938 20.7303 3.005 20.3048 3.005 19.8078V18.8078H21.9951V19.8078C21.9951 20.3064 21.8107 20.7323 21.442 21.0855C21.0732 21.4387 20.63 21.6153 20.1123 21.6153H4.88782ZM3.005 17.923L6.23235 10.727C6.38704 10.3898 6.62211 10.1267 6.93756 9.93752C7.25301 9.74835 7.59207 9.65377 7.95474 9.65377H17.0454C17.408 9.65377 17.7471 9.74835 18.0626 9.93752C18.378 10.1267 18.6131 10.3898 18.7678 10.727L21.9951 17.923H3.005ZM8.97454 16.1153H10.0162C10.1389 16.1153 10.2464 16.0711 10.3386 15.9828C10.4308 15.8943 10.4769 15.791 10.4769 15.673C10.4769 15.5552 10.4308 15.452 10.3386 15.3635C10.2464 15.275 10.1389 15.2308 10.0162 15.2308H8.97454C8.85162 15.2308 8.74407 15.275 8.65188 15.3635C8.55969 15.452 8.5136 15.5552 8.5136 15.673C8.5136 15.791 8.55969 15.8943 8.65188 15.9828C8.74407 16.0711 8.85162 16.1153 8.97454 16.1153ZM8.97454 14.2308H10.0162C10.1389 14.2308 10.2464 14.1865 10.3386 14.098C10.4308 14.0095 10.4769 13.9063 10.4769 13.7885C10.4769 13.6705 10.4308 13.5673 10.3386 13.4788C10.2464 13.3904 10.1389 13.3463 10.0162 13.3463H8.97454C8.85162 13.3463 8.74407 13.3904 8.65188 13.4788C8.55969 13.5673 8.5136 13.6705 8.5136 13.7885C8.5136 13.9063 8.55969 14.0095 8.65188 14.098C8.74407 14.1865 8.85162 14.2308 8.97454 14.2308ZM8.97454 12.3463H10.0162C10.1389 12.3463 10.2464 12.302 10.3386 12.2135C10.4308 12.125 10.4769 12.0218 10.4769 11.9038C10.4769 11.7859 10.4308 11.6828 10.3386 11.5943C10.2464 11.5058 10.1389 11.4615 10.0162 11.4615H8.97454C8.85162 11.4615 8.74407 11.5058 8.65188 11.5943C8.55969 11.6828 8.5136 11.7859 8.5136 11.9038C8.5136 12.0218 8.55969 12.125 8.65188 12.2135C8.74407 12.302 8.85162 12.3463 8.97454 12.3463ZM11.9792 16.1153H13.0209C13.1438 16.1153 13.2513 16.0711 13.3433 15.9828C13.4355 15.8943 13.4816 15.791 13.4816 15.673C13.4816 15.5552 13.4355 15.452 13.3433 15.3635C13.2513 15.275 13.1438 15.2308 13.0209 15.2308H11.9792C11.8563 15.2308 11.7488 15.275 11.6568 15.3635C11.5646 15.452 11.5185 15.5552 11.5185 15.673C11.5185 15.791 11.5646 15.8943 11.6568 15.9828C11.7488 16.0711 11.8563 16.1153 11.9792 16.1153ZM11.9792 14.2308H13.0209C13.1438 14.2308 13.2513 14.1865 13.3433 14.098C13.4355 14.0095 13.4816 13.9063 13.4816 13.7885C13.4816 13.6705 13.4355 13.5673 13.3433 13.4788C13.2513 13.3904 13.1438 13.3463 13.0209 13.3463H11.9792C11.8563 13.3463 11.7488 13.3904 11.6568 13.4788C11.5646 13.5673 11.5185 13.6705 11.5185 13.7885C11.5185 13.9063 11.5646 14.0095 11.6568 14.098C11.7488 14.1865 11.8563 14.2308 11.9792 14.2308ZM11.9792 12.3463H13.0209C13.1438 12.3463 13.2513 12.302 13.3433 12.2135C13.4355 12.125 13.4816 12.0218 13.4816 11.9038C13.4816 11.7859 13.4355 11.6828 13.3433 11.5943C13.2513 11.5058 13.1438 11.4615 13.0209 11.4615H11.9792C11.8563 11.4615 11.7488 11.5058 11.6568 11.5943C11.5646 11.6828 11.5185 11.7859 11.5185 11.9038C11.5185 12.0218 11.5646 12.125 11.6568 12.2135C11.7488 12.302 11.8563 12.3463 11.9792 12.3463ZM14.9839 16.1153H16.0256C16.1485 16.1153 16.256 16.0711 16.3482 15.9828C16.4404 15.8943 16.4865 15.791 16.4865 15.673C16.4865 15.5552 16.4404 15.452 16.3482 15.3635C16.256 15.275 16.1485 15.2308 16.0256 15.2308H14.9839C14.8612 15.2308 14.7537 15.275 14.6615 15.3635C14.5693 15.452 14.5232 15.5552 14.5232 15.673C14.5232 15.791 14.5693 15.8943 14.6615 15.9828C14.7537 16.0711 14.8612 16.1153 14.9839 16.1153ZM14.9839 14.2308H16.0256C16.1485 14.2308 16.256 14.1865 16.3482 14.098C16.4404 14.0095 16.4865 13.9063 16.4865 13.7885C16.4865 13.6705 16.4404 13.5673 16.3482 13.4788C16.256 13.3904 16.1485 13.3463 16.0256 13.3463H14.9839C14.8612 13.3463 14.7537 13.3904 14.6615 13.4788C14.5693 13.5673 14.5232 13.6705 14.5232 13.7885C14.5232 13.9063 14.5693 14.0095 14.6615 14.098C14.7537 14.1865 14.8612 14.2308 14.9839 14.2308ZM14.9839 12.3463H16.0256C16.1485 12.3463 16.256 12.302 16.3482 12.2135C16.4404 12.125 16.4865 12.0218 16.4865 11.9038C16.4865 11.7859 16.4404 11.6828 16.3482 11.5943C16.256 11.5058 16.1485 11.4615 16.0256 11.4615H14.9839C14.8612 11.4615 14.7537 11.5058 14.6615 11.5943C14.5693 11.6828 14.5232 11.7859 14.5232 11.9038C14.5232 12.0218 14.5693 12.125 14.6615 12.2135C14.7537 12.302 14.8612 12.3463 14.9839 12.3463Z" fill="#002F6C"/>
</g>
</svg>
