<svg width="24" height="24" viewBox="0 0 24 24" fill="none" xmlns="http://www.w3.org/2000/svg">
<mask id="mask0_331_1171" style="mask-type:alpha" maskUnits="userSpaceOnUse" x="0" y="0" width="24" height="24">
<rect width="24" height="24" fill="#D9D9D9"/>
</mask>
<g mask="url(#mask0_331_1171)">
<path d="M11.075 21.7615C9.86472 21.5962 8.71538 21.2283 7.62705 20.6578C6.53855 20.0873 5.59205 19.3709 4.78755 18.5085C3.98305 17.6464 3.34655 16.6595 2.87805 15.548C2.40938 14.4365 2.17505 13.2539 2.17505 12C2.17505 10.6219 2.43663 9.33561 2.9598 8.14128C3.4828 6.94711 4.25072 5.88019 5.26355 4.94053H3.32505V2.79053H9.07505V8.54053H6.92505V6.31728C6.08022 7.05578 5.43563 7.91353 4.9913 8.89053C4.54713 9.86736 4.32505 10.9039 4.32505 12C4.32505 13.8962 4.95905 15.5587 6.22705 16.9875C7.49488 18.4164 9.11088 19.291 11.075 19.6115V21.7615ZM10.575 16.7038L6.2463 12.3845L7.75005 10.8808L10.575 13.7058L16.25 8.03078L17.7538 9.52503L10.575 16.7038ZM14.925 21.2193V15.4693H17.075V17.6923C17.9135 16.9539 18.5565 16.0947 19.0038 15.1145C19.4513 14.1344 19.675 13.0962 19.675 12C19.675 10.1039 19.041 8.44136 17.773 7.01253C16.5052 5.58369 14.8892 4.70903 12.925 4.38853V2.23853C15.4854 2.57569 17.6088 3.66003 19.2953 5.49153C20.9818 7.32286 21.825 9.49236 21.825 12C21.825 13.3782 21.5635 14.666 21.0403 15.8635C20.5173 17.0609 19.7494 18.1294 18.7365 19.0693H20.675V21.2193H14.925Z" fill="#00A9DF"/>
</g>
</svg>
