<svg width="24" height="24" viewBox="0 0 24 24" fill="none" xmlns="http://www.w3.org/2000/svg">
<mask id="mask0_284_3742" style="mask-type:alpha" maskUnits="userSpaceOnUse" x="0" y="0" width="24" height="24">
<rect width="24" height="24" fill="#D9D9D9"/>
</mask>
<g mask="url(#mask0_284_3742)">
<path d="M16.8095 18.6407L14.625 20.8002L12.7615 18.9367L14.9213 16.7329C14.8456 16.5368 14.7856 16.3448 14.7413 16.1569C14.6971 15.9691 14.675 15.7707 14.675 15.5617C14.675 14.6399 14.9988 13.8553 15.6463 13.2079C16.2936 12.5604 17.0782 12.2367 18 12.2367C18.3025 12.2367 18.5884 12.2697 18.8578 12.3357C19.1269 12.4017 19.3775 12.5072 19.6095 12.6522L17.4 14.8617L18.7 16.1617L20.9095 13.9522C21.0545 14.1842 21.16 14.4348 21.226 14.7039C21.292 14.9733 21.325 15.2592 21.325 15.5617C21.325 16.4835 21.0013 17.2682 20.3538 17.9157C19.7064 18.563 18.9218 18.8867 18 18.8867C17.8038 18.8867 17.6054 18.8646 17.4048 18.8204C17.2041 18.7761 17.0057 18.7162 16.8095 18.6407ZM20.4463 9.6157H18.7595C18.275 8.23103 17.4196 7.09061 16.1933 6.19445C14.9669 5.29828 13.5692 4.8502 12 4.8502C10.0333 4.8502 8.35001 5.5502 6.95001 6.9502C5.55001 8.3502 4.85001 10.0335 4.85001 12.0002C4.85001 13.2554 5.15768 14.4022 5.77301 15.4407C6.38851 16.479 7.19751 17.2848 8.20001 17.8579V15.1502H9.85001V20.8002H4.20001V19.1502H7.26151C6.06801 18.4169 5.09268 17.4249 4.33551 16.1742C3.57851 14.9235 3.20001 13.5322 3.20001 12.0002C3.20001 10.7912 3.42951 9.65178 3.88851 8.58195C4.34751 7.51211 4.97701 6.5772 5.77701 5.7772C6.57701 4.9772 7.51193 4.34769 8.58176 3.88869C9.6516 3.42969 10.791 3.2002 12 3.2002C14.0372 3.2002 15.8215 3.80728 17.353 5.02144C18.8843 6.23544 19.9154 7.76686 20.4463 9.6157Z" fill="#ffffff"/>
</g>
</svg>
