<svg width="20" height="20" viewBox="0 0 20 20" fill="none" xmlns="http://www.w3.org/2000/svg">
<mask id="mask0_284_3911" style="mask-type:alpha" maskUnits="userSpaceOnUse" x="0" y="0" width="20" height="20">
<rect width="20" height="20" fill="#D9D9D9"/>
</mask>
<g mask="url(#mask0_284_3911)">
<path d="M12.9551 13.503L13.8157 12.6425L10.625 9.40971V4.9165H9.41663V9.96459L12.9551 13.503ZM10.0028 17.8332C8.92375 17.8332 7.90932 17.6293 6.95946 17.2215C6.00961 16.8137 5.17741 16.2529 4.46286 15.539C3.74831 14.8251 3.18697 13.9926 2.77883 13.0416C2.3707 12.0905 2.16663 11.0744 2.16663 9.99307C2.16663 8.90821 2.37092 7.88798 2.7795 6.9324C3.1881 5.9768 3.75006 5.14405 4.46538 4.43413C5.1807 3.72421 6.01316 3.1688 6.96277 2.76788C7.91238 2.36696 8.92704 2.1665 10.0067 2.1665C11.0915 2.1665 12.1116 2.36844 13.0671 2.77232C14.0227 3.1762 14.8541 3.73177 15.5612 4.43902C16.2683 5.14627 16.8238 5.97795 17.2276 6.93405C17.6314 7.89014 17.8333 8.91173 17.8333 9.9988C17.8333 11.0816 17.633 12.0956 17.2325 13.0408C16.8319 13.9859 16.277 14.8164 15.5677 15.5324C14.8584 16.2483 14.0255 16.8108 13.069 17.2197C12.1124 17.6287 11.0903 17.8332 10.0028 17.8332ZM10.0099 16.6248C11.8499 16.6248 13.4124 15.979 14.6974 14.6873C15.9824 13.3957 16.625 11.8299 16.625 9.9899C16.625 8.14994 15.9824 6.58744 14.6974 5.3024C13.4124 4.01736 11.8499 3.37484 10.0099 3.37484C8.16994 3.37484 6.60413 4.01736 5.31246 5.3024C4.02079 6.58744 3.37496 8.14994 3.37496 9.9899C3.37496 11.8299 4.02079 13.3957 5.31246 14.6873C6.60413 15.979 8.16994 16.6248 10.0099 16.6248Z" fill="#00A9DF"/>
</g>
</svg>
