<svg width="20" height="20" viewBox="0 0 20 20" fill="none" xmlns="http://www.w3.org/2000/svg">
<mask id="mask0_284_3901" style="mask-type:alpha" maskUnits="userSpaceOnUse" x="0" y="0" width="20" height="20">
<rect width="20" height="20" fill="#D9D9D9"/>
</mask>
<g mask="url(#mask0_284_3901)">
<path d="M4.64727 12.2757C4.0053 12.2757 3.45755 12.0511 3.00402 11.6017C2.55049 11.1523 2.32373 10.6066 2.32373 9.96466C2.32373 9.32268 2.54842 8.77493 2.99779 8.3214C3.44718 7.86788 3.99286 7.64111 4.63481 7.64111C5.27679 7.64111 5.82454 7.8658 6.27806 8.31518C6.73159 8.76457 6.95836 9.31024 6.95836 9.9522C6.95836 10.5942 6.73367 11.1419 6.28429 11.5954C5.8349 12.049 5.28923 12.2757 4.64727 12.2757ZM4.63554 11.0674C4.94818 11.0674 5.21208 10.9617 5.42725 10.7502C5.64243 10.5387 5.75002 10.2766 5.75002 9.96395C5.75002 9.65129 5.64427 9.38739 5.43277 9.17222C5.22127 8.95704 4.9592 8.84945 4.64656 8.84945C4.33391 8.84945 4.07 8.9552 3.85483 9.1667C3.63965 9.3782 3.53206 9.64027 3.53206 9.95291C3.53206 10.2656 3.63781 10.5295 3.84931 10.7446C4.06081 10.9598 4.32289 11.0674 4.63554 11.0674ZM10.0063 12.2757C9.36428 12.2757 8.81653 12.0511 8.363 11.6017C7.90947 11.1523 7.68271 10.6066 7.68271 9.96466C7.68271 9.32268 7.9074 8.77493 8.35677 8.3214C8.80616 7.86788 9.35183 7.64111 9.99379 7.64111C10.6358 7.64111 11.1835 7.8658 11.637 8.31518C12.0906 8.76457 12.3173 9.31024 12.3173 9.9522C12.3173 10.5942 12.0926 11.1419 11.6433 11.5954C11.1939 12.049 10.6482 12.2757 10.0063 12.2757ZM9.9945 11.0674C10.3072 11.0674 10.5711 10.9617 10.7862 10.7502C11.0014 10.5387 11.109 10.2766 11.109 9.96395C11.109 9.65129 11.0033 9.38739 10.7918 9.17222C10.5803 8.95704 10.3182 8.84945 10.0055 8.84945C9.69289 8.84945 9.42898 8.9552 9.21381 9.1667C8.99863 9.3782 8.89104 9.64027 8.89104 9.95291C8.89104 10.2656 8.99679 10.5295 9.20829 10.7446C9.41979 10.9598 9.68186 11.0674 9.9945 11.0674ZM15.3652 12.2757C14.7233 12.2757 14.1755 12.0511 13.722 11.6017C13.2685 11.1523 13.0417 10.6066 13.0417 9.96466C13.0417 9.32268 13.2664 8.77493 13.7158 8.3214C14.1651 7.86788 14.7108 7.64111 15.3528 7.64111C15.9947 7.64111 16.5425 7.8658 16.996 8.31518C17.4495 8.76457 17.6763 9.31024 17.6763 9.9522C17.6763 10.5942 17.4516 11.1419 17.0023 11.5954C16.5529 12.049 16.0072 12.2757 15.3652 12.2757Z" fill="#00A9DF"/>
</g>
</svg>
