<svg width="20" height="20" viewBox="0 0 20 20" fill="none" xmlns="http://www.w3.org/2000/svg">
<g id="acute">
<mask id="mask0_179_2873" style="mask-type:alpha" maskUnits="userSpaceOnUse" x="0" y="0" width="20" height="20">
<rect id="Bounding box" width="20" height="20" fill="#D9D9D9"/>
</mask>
<g mask="url(#mask0_179_2873)">
<path id="acute_2" d="M12.6723 15.5834C11.1217 15.5834 9.80314 15.0401 8.71647 13.9534C7.62994 12.8669 7.08668 11.5483 7.08668 9.99779C7.08668 8.45876 7.62994 7.14383 8.71647 6.053C9.80314 4.96216 11.1217 4.41675 12.6723 4.41675C14.2113 4.41675 15.5262 4.96216 16.6169 6.053C17.7077 7.14383 18.2531 8.45876 18.2531 9.99779C18.2531 11.5483 17.7077 12.8669 16.6169 13.9534C15.5262 15.0401 14.2113 15.5834 12.6723 15.5834ZM12.6594 14.5001C13.9163 14.5001 14.9823 14.0661 15.8573 13.198C16.7323 12.3299 17.1698 11.2674 17.1698 10.0105C17.1698 8.75355 16.7323 7.68758 15.8573 6.81258C14.9823 5.93758 13.9198 5.50008 12.6698 5.50008C11.4059 5.50008 10.3399 5.93758 9.47189 6.81258C8.60383 7.68758 8.1698 8.75008 8.1698 10.0001C8.1698 11.264 8.60383 12.3299 9.47189 13.198C10.3399 14.0661 11.4024 14.5001 12.6594 14.5001ZM14.4583 12.5753L15.2244 11.8095L13.2098 9.79071V7.12821H12.1281V10.2295L14.4583 12.5753ZM2.99689 7.29175V6.20841H5.83668V7.29175H2.99689ZM1.99689 10.5417V9.45842H5.83668V10.5417H1.99689ZM2.99689 13.7917V12.7084H5.83668V13.7917H2.99689Z" fill="#00A9DF"/>
</g>
</g>
</svg>
