<svg width="25" height="24" viewBox="0 0 25 24" fill="none" xmlns="http://www.w3.org/2000/svg">
<mask id="mask0_302_4163" style="mask-type:alpha" maskUnits="userSpaceOnUse" x="0" y="0" width="25" height="24">
<rect x="0.5" width="24" height="24" fill="#D9D9D9"/>
</mask>
<g mask="url(#mask0_302_4163)">
<path d="M9.45351 16.1155C8.79985 16.1155 8.2416 15.8852 7.77876 15.4247C7.31593 14.9642 7.08451 14.4071 7.08451 13.7535C7.08451 13.0998 7.31476 12.5416 7.77526 12.0787C8.23576 11.6159 8.79285 11.3845 9.44651 11.3845C10.1002 11.3845 10.6584 11.6147 11.1213 12.0752C11.5841 12.5357 11.8155 13.0928 11.8155 13.7465C11.8155 14.4001 11.5853 14.9584 11.1248 15.4212C10.6643 15.8841 10.1072 16.1155 9.45351 16.1155ZM5.96551 21.75C5.32635 21.75 4.78901 21.5321 4.35351 21.0965C3.91785 20.661 3.70001 20.1236 3.70001 19.4845V6.41548C3.70001 5.77631 3.91785 5.23898 4.35351 4.80348C4.78901 4.36781 5.32635 4.14998 5.96551 4.14998H6.93451V2.01923H8.66151V4.14998H16.4155V2.01923H18.0655V4.14998H19.0345C19.6737 4.14998 20.211 4.36781 20.6465 4.80348C21.0822 5.23898 21.3 5.77631 21.3 6.41548V19.4845C21.3 20.1236 21.0822 20.661 20.6465 21.0965C20.211 21.5321 19.6737 21.75 19.0345 21.75H5.96551ZM5.96551 20.1H19.0345C19.1885 20.1 19.3296 20.0359 19.4578 19.9077C19.5859 19.7796 19.65 19.6385 19.65 19.4845V10.1155H5.35001V19.4845C5.35001 19.6385 5.4141 19.7796 5.54226 19.9077C5.67043 20.0359 5.81151 20.1 5.96551 20.1ZM5.35001 8.46523H19.65V6.41548C19.65 6.26148 19.5859 6.12039 19.4578 5.99223C19.3296 5.86406 19.1885 5.79998 19.0345 5.79998H5.96551C5.81151 5.79998 5.67043 5.86406 5.54226 5.99223C5.4141 6.12039 5.35001 6.26148 5.35001 6.41548V8.46523Z" fill="white"/>
</g>
</svg>
