<svg width="19" height="20" viewBox="0 0 19 20" fill="none" xmlns="http://www.w3.org/2000/svg">
<path d="M6.45351 14.1155C5.79985 14.1155 5.2416 13.8852 4.77876 13.4247C4.31593 12.9642 4.08451 12.4071 4.08451 11.7535C4.08451 11.0998 4.31476 10.5416 4.77526 10.0787C5.23576 9.61589 5.79285 9.38448 6.44651 9.38448C7.10018 9.38448 7.65843 9.61473 8.12126 10.0752C8.5841 10.5357 8.81551 11.0928 8.81551 11.7465C8.81551 12.4001 8.58526 12.9584 8.12476 13.4212C7.66426 13.8841 7.10718 14.1155 6.45351 14.1155ZM2.96551 19.75C2.32635 19.75 1.78901 19.5321 1.35351 19.0965C0.917846 18.661 0.700012 18.1236 0.700012 17.4845V4.41548C0.700012 3.77631 0.917846 3.23898 1.35351 2.80348C1.78901 2.36781 2.32635 2.14998 2.96551 2.14998H3.93451V0.0192261H5.66151V2.14998H13.4155V0.0192261H15.0655V2.14998H16.0345C16.6737 2.14998 17.211 2.36781 17.6465 2.80348C18.0822 3.23898 18.3 3.77631 18.3 4.41548V17.4845C18.3 18.1236 18.0822 18.661 17.6465 19.0965C17.211 19.5321 16.6737 19.75 16.0345 19.75H2.96551ZM2.96551 18.1H16.0345C16.1885 18.1 16.3296 18.0359 16.4578 17.9077C16.5859 17.7796 16.65 17.6385 16.65 17.4845V8.11548H2.35001V17.4845C2.35001 17.6385 2.4141 17.7796 2.54226 17.9077C2.67043 18.0359 2.81151 18.1 2.96551 18.1ZM2.35001 6.46523H16.65V4.41548C16.65 4.26148 16.5859 4.12039 16.4578 3.99223C16.3296 3.86406 16.1885 3.79998 16.0345 3.79998H2.96551C2.81151 3.79998 2.67043 3.86406 2.54226 3.99223C2.4141 4.12039 2.35001 4.26148 2.35001 4.41548V6.46523Z" fill="#002F6C"/>
</svg>
