<svg width="20" height="20" viewBox="0 0 20 20" fill="none" xmlns="http://www.w3.org/2000/svg">
<g id="toggle_on">
<mask id="mask0_179_2981" style="mask-type:alpha" maskUnits="userSpaceOnUse" x="0" y="0" width="20" height="20">
<rect id="Bounding box" width="20" height="20" fill="#D9D9D9"/>
</mask>
<g mask="url(#mask0_179_2981)">
<path id="toggle_on_2" d="M6.00002 14.5834C4.72683 14.5834 3.64467 14.138 2.75356 13.2472C1.86231 12.3563 1.41669 11.2746 1.41669 10.002C1.41669 8.72932 1.86231 7.64696 2.75356 6.75487C3.64467 5.86279 4.72683 5.41675 6.00002 5.41675H14C15.2732 5.41675 16.3554 5.86217 17.2465 6.753C18.1377 7.64383 18.5834 8.72557 18.5834 9.99821C18.5834 11.2708 18.1377 12.3532 17.2465 13.2453C16.3554 14.1374 15.2732 14.5834 14 14.5834H6.00002ZM6.00002 13.5001H14C14.9722 13.5001 15.7986 13.1598 16.4792 12.4792C17.1597 11.7987 17.5 10.9723 17.5 10.0001C17.5 9.02786 17.1597 8.20147 16.4792 7.52091C15.7986 6.84036 14.9722 6.50008 14 6.50008H6.00002C5.0278 6.50008 4.20141 6.84036 3.52085 7.52091C2.8403 8.20147 2.50002 9.02786 2.50002 10.0001C2.50002 10.9723 2.8403 11.7987 3.52085 12.4792C4.20141 13.1598 5.0278 13.5001 6.00002 13.5001ZM13.999 12.2917C14.6354 12.2917 15.1765 12.069 15.6225 11.6236C16.0686 11.1782 16.2917 10.6374 16.2917 10.0011C16.2917 9.36473 16.069 8.82355 15.6236 8.37758C15.1781 7.93147 14.6373 7.70841 14.0011 7.70841C13.3647 7.70841 12.8235 7.93112 12.3775 8.37654C11.9314 8.82196 11.7084 9.36279 11.7084 9.99904C11.7084 10.6354 11.9311 11.1766 12.3765 11.6226C12.8219 12.0687 13.3627 12.2917 13.999 12.2917Z" fill="#00A9DF"/>
</g>
</g>
</svg>
