<svg width="21" height="20" viewBox="0 0 21 20" fill="none" xmlns="http://www.w3.org/2000/svg">
<g id="visibility">
<mask id="mask0_185_4288" style="mask-type:alpha" maskUnits="userSpaceOnUse" x="0" y="0" width="21" height="20">
<rect id="Bounding box" x="0.666626" width="20" height="20" fill="#D9D9D9"/>
</mask>
<g mask="url(#mask0_185_4288)">
<path id="visibility_2" d="M10.6703 13.2947C11.5866 13.2947 12.3642 12.974 13.003 12.3326C13.6419 11.6912 13.9614 10.9124 13.9614 9.99617C13.9614 9.07992 13.6407 8.30235 12.9993 7.66346C12.3579 7.02457 11.5791 6.70513 10.6628 6.70513C9.74659 6.70513 8.96902 7.02582 8.33013 7.66721C7.69124 8.3086 7.3718 9.08742 7.3718 10.0037C7.3718 10.9199 7.69249 11.6975 8.33388 12.3364C8.97527 12.9753 9.75409 13.2947 10.6703 13.2947ZM10.6641 12.0416C10.0963 12.0416 9.6145 11.8428 9.21867 11.4453C8.82284 11.0478 8.62492 10.5652 8.62492 9.99742C8.62492 9.42964 8.82367 8.94784 9.22117 8.552C9.61867 8.15617 10.1013 7.95825 10.6691 7.95825C11.2369 7.95825 11.7187 8.157 12.1145 8.5545C12.5103 8.952 12.7083 9.43464 12.7083 10.0024C12.7083 10.5702 12.5095 11.052 12.112 11.4478C11.7145 11.8437 11.2319 12.0416 10.6641 12.0416ZM10.6689 15.7916C8.71679 15.7916 6.94818 15.2622 5.36305 14.2035C3.77805 13.1447 2.59506 11.7435 1.81409 9.99992C2.59506 8.25631 3.77728 6.85513 5.36075 5.79638C6.94437 4.73763 8.71221 4.20825 10.6643 4.20825C12.6164 4.20825 14.385 4.73763 15.9701 5.79638C17.5551 6.85513 18.7381 8.25631 19.5191 9.99992C18.7381 11.7435 17.5559 13.1447 15.9724 14.2035C14.3888 15.2622 12.621 15.7916 10.6689 15.7916Z" fill="white"/>
</g>
</g>
</svg>
