<svg width="20" height="20" viewBox="0 0 20 20" fill="none" xmlns="http://www.w3.org/2000/svg">
<mask id="mask0_295_2121" style="mask-type:alpha" maskUnits="userSpaceOnUse" x="0" y="0" width="20" height="20">
<rect width="20" height="20" fill="#D9D9D9"/>
</mask>
<g mask="url(#mask0_295_2121)">
<path d="M1 18L2.6875 12.25C2.46528 11.75 2.29514 11.2292 2.17708 10.6875C2.05903 10.1458 2 9.58333 2 9C2 7.88889 2.20833 6.85069 2.625 5.88542C3.04167 4.92014 3.61458 4.07292 4.34375 3.34375C5.07292 2.61458 5.92333 2.04167 6.895 1.625C7.86667 1.20833 8.90486 1 10.0096 1C11.1143 1 12.1493 1.20833 13.1146 1.625C14.0799 2.04167 14.9271 2.61458 15.6562 3.34375C16.3854 4.07292 16.9583 4.92167 17.375 5.89C17.7917 6.85847 18 7.89319 18 8.99417C18 10.0953 17.7917 11.1319 17.375 12.1042C16.9583 13.0764 16.3854 13.9271 15.6562 14.6562C14.9271 15.3854 14.0799 15.9583 13.1146 16.375C12.1493 16.7917 11.1111 17 10 17C9.41667 17 8.85417 16.941 8.3125 16.8229C7.77083 16.7049 7.25 16.5347 6.75 16.3125L1 18ZM9.25 12H10.75V9.75H13V8.25H10.75V6H9.25V8.25H7V9.75H9.25V12Z" fill="white"/>
</g>
</svg>
