<svg width="24" height="24" viewBox="0 0 24 24" fill="none" xmlns="http://www.w3.org/2000/svg">
<mask id="mask0_331_1179" style="mask-type:alpha" maskUnits="userSpaceOnUse" x="0" y="0" width="24" height="24">
<rect width="24" height="24" fill="#D9D9D9"/>
</mask>
<g mask="url(#mask0_331_1179)">
<path d="M11.325 13.375L15.9287 8.7713L14.6095 7.45205L11.325 10.7365L9.92498 9.33655L8.60573 10.6558L11.325 13.375ZM12 22.3345C9.16664 19.9539 7.06698 17.7745 5.70098 15.7963C4.33498 13.818 3.65198 11.9435 3.65198 10.173C3.65198 7.88205 4.45256 5.89296 6.05373 4.2058C7.65506 2.51863 9.63714 1.67505 12 1.67505C14.3628 1.67505 16.3449 2.51863 17.9462 4.2058C19.5474 5.89296 20.348 7.88205 20.348 10.173C20.348 11.9435 19.665 13.818 18.299 15.7963C16.933 17.7745 14.8333 19.9539 12 22.3345Z" fill="#C8C9CC"/>
</g>
</svg>
